rotated_Sprint_08100001_forces_filt10Hz.mot
version=1
nRows=38
nColumns=19
inDegrees=yes
endheader
time	R_ground_force_vx	R_ground_force_vy	R_ground_force_vz	R_ground_force_px	R_ground_force_py	R_ground_force_pz	R_ground_torque_x	R_ground_torque_y	R_ground_torque_z	L_ground_force_vx	L_ground_force_vy	L_ground_force_vz	L_ground_force_px	L_ground_force_py	L_ground_force_pz	L_ground_torque_x	L_ground_torque_y	L_ground_torque_z	
2.927000	  0.000000	  0.000000	  0.000000	  0.202139	  0.000000	 -0.631780	  0.000000	  0.000000	  0.000000	-195.868948	648.161384	 71.162872	  0.947270	  0.000000	 -0.373729	  0.000000	 -1.813481	  0.000000
2.927500	  0.000000	  0.000000	  0.000000	  0.204590	  0.000000	 -0.632170	  0.000000	  0.000000	  0.000000	-200.813652	672.951796	 72.909510	  0.945862	  0.000000	 -0.372898	  0.000000	 -2.002986	  0.000000
2.928000	  0.000000	  0.000000	  0.000000	  0.207041	  0.000000	 -0.632560	  0.000000	  0.000000	  0.000000	-205.781663	698.192962	 74.654169	  0.944494	  0.000000	 -0.372091	  0.000000	 -2.203169	  0.000000
2.928500	  0.000000	  0.000000	  0.000000	  0.209492	  0.000000	 -0.632950	  0.000000	  0.000000	  0.000000	-210.768091	723.879824	 76.394992	  0.943163	  0.000000	 -0.371308	  0.000000	 -2.414351	  0.000000
2.929000	  0.000000	  0.000000	  0.000000	  0.211942	  0.000000	 -0.633341	  0.000000	  0.000000	  0.000000	-215.767810	750.006640	 78.130094	  0.941866	  0.000000	 -0.370547	  0.000000	 -2.636846	  0.000000
2.929500	  0.000000	  0.000000	  0.000000	  0.214393	  0.000000	 -0.633731	  0.000000	  0.000000	  0.000000	-220.775463	776.566966	 79.857557	  0.940600	  0.000000	 -0.369805	  0.000000	 -2.870956	  0.000000
2.930000	  0.000000	  0.000000	  0.000000	  0.216844	  0.000000	 -0.634121	  0.000000	  0.000000	  0.000000	-225.785464	803.553625	 81.575412	  0.939362	  0.000000	 -0.369081	  0.000000	 -3.116965	  0.000000
2.930500	  0.000000	  0.000000	  0.000000	  0.219009	  0.000000	 -0.634202	  0.000000	  0.000000	  0.000000	-230.792003	830.958683	 83.281627	  0.938149	  0.000000	 -0.368375	  0.000000	 -3.375136	  0.000000
2.931000	  0.000000	  0.000000	  0.000000	  0.221174	  0.000000	 -0.634283	  0.000000	  0.000000	  0.000000	-235.789056	858.773423	 84.974090	  0.936961	  0.000000	 -0.367683	  0.000000	 -3.645709	  0.000000
2.931500	  0.000000	  0.000000	  0.000000	  0.223339	  0.000000	 -0.634364	  0.000000	  0.000000	  0.000000	-240.770397	886.988320	 86.650586	  0.935794	  0.000000	 -0.367006	  0.000000	 -3.928897	  0.000000
2.932000	  0.000000	  0.000000	  0.000000	  0.225504	  0.000000	 -0.634445	  0.000000	  0.000000	  0.000000	-245.729612	915.593008	 88.308778	  0.934646	  0.000000	 -0.366341	  0.000000	 -4.224893	  0.000000
2.932500	  0.000000	  0.000000	  0.000000	  0.227669	  0.000000	 -0.634525	  0.000000	  0.000000	  0.000000	-250.660127	944.576261	 89.946187	  0.933516	  0.000000	 -0.365689	  0.000000	 -4.533865	  0.000000
2.933000	  0.000000	  0.000000	  0.000000	  0.229834	  0.000000	 -0.634606	  0.000000	  0.000000	  0.000000	-255.555230	973.925958	 91.560172	  0.932402	  0.000000	 -0.365047	  0.000000	 -4.855964	  0.000000
2.933500	  0.000000	  0.000000	  0.000000	  0.231999	  0.000000	 -0.634687	  0.000000	  0.000000	  0.000000	-260.408109	1003.629082	 93.147916	  0.931303	  0.000000	 -0.364416	  0.000000	 -5.191327	  0.000000
2.934000	  0.000000	  0.000000	  0.000000	  0.234164	  0.000000	 -0.634768	  0.000000	  0.000000	  0.000000	-265.211882	1033.671800	 94.706416	  0.930216	  0.000000	 -0.363795	  0.000000	 -5.540071	  0.000000
2.934500	  0.000000	  0.000000	  0.000000	  0.236329	  0.000000	 -0.634849	  0.000000	  0.000000	  0.000000	-269.959634	1064.039595	 96.232470	  0.929142	  0.000000	 -0.363182	  0.000000	 -5.902297	  0.000000
2.935000	  0.000000	  0.000000	  0.000000	  0.238494	  0.000000	 -0.634930	  0.000000	  0.000000	  0.000000	-274.644455	1094.717408	 97.722671	  0.928078	  0.000000	 -0.362577	  0.000000	 -6.278083	  0.000000
2.935500	  0.000000	  0.000000	  0.000000	  0.240830	  0.000000	 -0.634803	  0.000000	  0.000000	  0.000000	-279.259477	1125.689739	 99.173395	  0.927023	  0.000000	 -0.361980	  0.000000	 -6.667489	  0.000000
2.936000	  0.000000	  0.000000	  0.000000	  0.243167	  0.000000	 -0.634676	  0.000000	  0.000000	  0.000000	-283.797911	1156.940747	100.580791	  0.925977	  0.000000	 -0.361391	  0.000000	 -7.070553	  0.000000
2.936500	  0.000000	  0.000000	  0.000000	  0.245503	  0.000000	 -0.634548	  0.000000	  0.000000	  0.000000	-288.253079	1188.454354	101.940761	  0.924938	  0.000000	 -0.360808	  0.000000	 -7.487297	  0.000000
2.937000	  0.000000	  0.000000	  0.000000	  0.247839	  0.000000	 -0.634421	  0.000000	  0.000000	  0.000000	-292.618454	1220.214331	103.248951	  0.923905	  0.000000	 -0.360232	  0.000000	 -7.917739	  0.000000
2.937500	  0.000000	  0.000000	  0.000000	  0.250175	  0.000000	 -0.634294	  0.000000	  0.000000	  0.000000	-296.887691	1252.204373	104.500734	  0.922878	  0.000000	 -0.359662	  0.000000	 -8.361890	  0.000000
2.938000	  0.000000	  0.000000	  0.000000	  0.252512	  0.000000	 -0.634167	  0.000000	  0.000000	  0.000000	-301.054669	1284.408136	105.691205	  0.921855	  0.000000	 -0.359098	  0.000000	 -8.819767	  0.000000
2.938500	  0.000000	  0.000000	  0.000000	  0.254848	  0.000000	 -0.634040	  0.000000	  0.000000	  0.000000	-305.113535	1316.809262	106.815193	  0.920836	  0.000000	 -0.358540	  0.000000	 -9.291394	  0.000000
2.939000	  0.000000	  0.000000	  0.000000	  0.257184	  0.000000	 -0.633912	  0.000000	  0.000000	  0.000000	-309.058752	1349.391378	107.867280	  0.919820	  0.000000	 -0.357988	  0.000000	 -9.776803	  0.000000
2.939500	  0.000000	  0.000000	  0.000000	  0.259521	  0.000000	 -0.633785	  0.000000	  0.000000	  0.000000	-312.885161	1382.138087	108.841829	  0.918807	  0.000000	 -0.357442	  0.000000	-10.276035	  0.000000
2.940000	  0.000000	  0.000000	  0.000000	  0.261857	  0.000000	 -0.633658	  0.000000	  0.000000	  0.000000	-316.588037	1415.032959	109.733035	  0.917794	  0.000000	 -0.356902	  0.000000	-10.789137	  0.000000
2.940500	  0.000000	  0.000000	  0.000000	  0.264392	  0.000000	 -0.633335	  0.000000	  0.000000	  0.000000	-320.163152	1448.059530	110.534965	  0.916782	  0.000000	 -0.356368	  0.000000	-11.316156	  0.000000
2.941000	  0.000000	  0.000000	  0.000000	  0.266927	  0.000000	 -0.633012	  0.000000	  0.000000	  0.000000	-323.606835	1481.201302	111.241603	  0.915770	  0.000000	 -0.355840	  0.000000	-11.857132	  0.000000
2.941500	  0.000000	  0.000000	  0.000000	  0.269462	  0.000000	 -0.632689	  0.000000	  0.000000	  0.000000	-326.916022	1514.441748	111.846900	  0.914757	  0.000000	 -0.355318	  0.000000	-12.412082	  0.000000
2.942000	  0.000000	  0.000000	  0.000000	  0.271997	  0.000000	 -0.632366	  0.000000	  0.000000	  0.000000	-330.088304	1547.764320	112.344802	  0.913741	  0.000000	 -0.354802	  0.000000	-12.980983	  0.000000
2.942500	  0.000000	  0.000000	  0.000000	  0.274532	  0.000000	 -0.632043	  0.000000	  0.000000	  0.000000	-333.121950	1581.152444	112.729294	  0.912723	  0.000000	 -0.354293	  0.000000	-13.563744	  0.000000
2.943000	  0.000000	  0.000000	  0.000000	  0.277066	  0.000000	 -0.631720	  0.000000	  0.000000	  0.000000	-336.015923	1614.589512	112.994431	  0.911700	  0.000000	 -0.353790	  0.000000	-14.160184	  0.000000
2.943500	  0.000000	  0.000000	  0.000000	  0.279601	  0.000000	 -0.631397	  0.000000	  0.000000	  0.000000	-338.769873	1648.058862	113.134378	  0.910672	  0.000000	 -0.353294	  0.000000	-14.769999	  0.000000
2.944000	  0.000000	  0.000000	  0.000000	  0.282136	  0.000000	 -0.631074	  0.000000	  0.000000	  0.000000	-341.384110	1681.543730	113.143460	  0.909637	  0.000000	 -0.352804	  0.000000	-15.392743	  0.000000
2.944500	  0.000000	  0.000000	  0.000000	  0.284671	  0.000000	 -0.630751	  0.000000	  0.000000	  0.000000	-343.859558	1715.027188	113.016206	  0.908594	  0.000000	 -0.352321	  0.000000	-16.027805	  0.000000
2.945000	  0.000000	  0.000000	  0.000000	  0.287206	  0.000000	 -0.630428	  0.000000	  0.000000	  0.000000	-346.197701	1748.492073	112.747395	  0.907542	  0.000000	 -0.351844	  0.000000	-16.674401	  0.000000
2.945500	  0.000000	  0.000000	  0.000000	  0.289814	  0.000000	 -0.629890	  0.000000	  0.000000	  0.000000	-348.400503	1781.920900	112.332097	  0.906480	  0.000000	 -0.351374	  0.000000	-17.331568	  0.000000
